<svg id="Layer_1" data-name="Layer 1" xmlns="http://www.w3.org/2000/svg" viewBox="0 0 500 500"><defs><style>.cls-1{fill:#aa734d;}.cls-2{fill:#7f543c;}.cls-3{fill:#ffc612;}.cls-4{fill:#f2a203;}.cls-5{fill:#ffecc7;}.cls-6{fill:#ffd48f;}.cls-7{fill:none;stroke:#000;stroke-linecap:round;stroke-linejoin:round;stroke-width:15px;}.cls-8{fill:#ffc97b;}</style></defs><title>clipboard</title><path class="cls-1" d="M336.29,55.87v57H163.71v-57H84.17a10,10,0,0,0-10,10V482.1a10,10,0,0,0,10,10H415.83a10,10,0,0,0,10-10V65.87a10,10,0,0,0-10-10Z"/><rect class="cls-2" x="133.71" y="55.87" width="30" height="57"/><path class="cls-2" d="M415.83,55.87h-30a10,10,0,0,1,10,10V482.1a10,10,0,0,1-10,10h30a10,10,0,0,0,10-10V65.87A10,10,0,0,0,415.83,55.87Z"/><path class="cls-3" d="M326.29,34.33H287.15a39.32,39.32,0,0,0-74.3,0H173.71a10,10,0,0,0-10,10v68.53H336.29V44.33A10,10,0,0,0,326.29,34.33ZM250,65.76a12.9,12.9,0,1,1,12.89-12.89A12.9,12.9,0,0,1,250,65.76Z"/><path class="cls-4" d="M326.29,34.33h-30a10,10,0,0,1,10,10v68.53h30V44.33A10,10,0,0,0,326.29,34.33Z"/><polygon class="cls-5" points="336.29 90.76 336.29 112.86 163.71 112.86 163.71 90.76 109.13 90.76 109.13 457.2 320.3 457.2 390.87 386.63 390.87 90.76 336.29 90.76"/><polygon class="cls-6" points="360.87 90.76 360.87 416.63 390.87 386.63 390.87 90.76 360.87 90.76"/><rect class="cls-6" x="133.71" y="90.76" width="30" height="29.64"/><polygon class="cls-7" points="336.29 90.76 336.29 112.86 163.71 112.86 163.71 90.76 109.13 90.76 109.13 457.2 320.3 457.2 390.87 386.63 390.87 90.76 336.29 90.76"/><path class="cls-7" d="M336.29,55.87v57H163.71v-57H84.17a10,10,0,0,0-10,10V482.1a10,10,0,0,0,10,10H415.83a10,10,0,0,0,10-10V65.87a10,10,0,0,0-10-10Z"/><polygon class="cls-8" points="319.96 457.2 319.96 386.63 390.54 386.63 319.96 457.2"/><polygon class="cls-7" points="319.96 457.2 319.96 386.63 390.54 386.63 319.96 457.2"/><path class="cls-7" d="M326.29,34.33H287.15a39.32,39.32,0,0,0-74.3,0H173.71a10,10,0,0,0-10,10v68.53H336.29V44.33A10,10,0,0,0,326.29,34.33ZM250,65.76a12.9,12.9,0,1,1,12.89-12.89A12.9,12.9,0,0,1,250,65.76Z"/></svg>